<?xml version="1.0" encoding="iso-8859-1"?>
Generator: Adobe Illustrator 19.0.0, SVG Export Plug-In . SVG Version: 6.00 Build 0)  -->
<svg version="1.1" id="Layer_1" xmlns="http://www.w3.org/2000/svg" xmlns:xlink="http://www.w3.org/1999/xlink" x="0px" y="0px"
	 viewBox="0 0 505 505" style="enable-background:new 0 0 505 505;" xml:space="preserve">
<circle style="fill:#324A5E;" cx="252.5" cy="252.5" r="252.5"/>
<rect x="71" y="151.2" style="fill:#FFFFFF;" width="363" height="202.6"/>
<rect x="71" y="184.6" style="fill:#CED5E0;" width="363" height="135.8"/>
<rect x="71" y="193.1" style="fill:#E6E9EE;" width="363" height="118.7"/>
<g>
	<path style="fill:#4CDBC4;" d="M91.4,175.8h-5.8v-13.3h5.2c0.9,0,1.7,0.1,2.3,0.3c0.7,0.2,1.1,0.5,1.5,0.9c0.6,0.7,0.9,1.5,0.9,2.3
		c0,1-0.3,1.8-1,2.3c-0.2,0.2-0.4,0.3-0.5,0.3s-0.2,0.1-0.5,0.2c0.8,0.2,1.5,0.6,2,1.1c0.5,0.6,0.7,1.3,0.7,2.1c0,0.9-0.3,1.7-1,2.5
		C94.5,175.4,93.2,175.8,91.4,175.8z M88.6,167.9H90c0.8,0,1.4-0.1,1.8-0.3s0.6-0.6,0.6-1.2c0-0.6-0.2-1-0.6-1.2s-1-0.3-1.9-0.3
		h-1.4v3H88.6z M88.6,173.3h2c0.9,0,1.5-0.1,1.9-0.3s0.6-0.6,0.6-1.2c0-0.6-0.2-1-0.7-1.2s-1.2-0.3-2.2-0.3h-1.8v3H88.6z"/>
	<path style="fill:#4CDBC4;" d="M108,175.8l-1.2-2.9h-5.6l-1.2,2.9h-3.2l5.8-13.3h2.9l5.8,13.3H108z M104,166.5l-1.7,3.9h3.3
		L104,166.5z"/>
	<path style="fill:#4CDBC4;" d="M122.1,162.5h3v13.3h-3l-6.3-8.3v8.3h-3v-13.3h2.8l6.5,8.6C122.1,171.1,122.1,162.5,122.1,162.5z"/>
	<path style="fill:#4CDBC4;" d="M128.3,162.5h3v5.5l5-5.5h3.7l-5.3,5.9c0.5,0.6,1.3,1.8,2.5,3.6c1.2,1.7,2.2,3,2.8,3.9h-3.5
		l-3.9-5.3l-1.3,1.5v3.8h-3V162.5z"/>
</g>
<g>
	<rect x="93.3" y="213.5" style="fill:#CED5E0;" width="154.6" height="6.7"/>
	<rect x="93.3" y="246.1" style="fill:#CED5E0;" width="154.6" height="6.7"/>
	<rect x="93.3" y="278.8" style="fill:#CED5E0;" width="154.6" height="6.7"/>
	<rect x="341.2" y="213.5" style="fill:#CED5E0;" width="75.5" height="6.7"/>
</g>
<path style="fill:#FFD05B;" d="M329.8,218.4c-1.1-1.1-1.7-2.7-1.3-4.4c3.9-19,17.8-34.5,36.3-40.4l2.7-0.9c3.2-1,5.5-3.7,6-7.1
	c0.5-3.4-0.8-6.6-3.6-8.6l-4.7-3.4c-2.2-1.6-2.7-4.6-1.1-6.7c1.6-2.2,4.6-2.7,6.7-1.1l4.7,3.4c5.7,4.1,8.6,10.9,7.5,17.9
	c-1.1,6.9-5.9,12.6-12.6,14.8l-2.7,0.9c-15.2,4.9-26.6,17.6-29.8,33.2c-0.5,2.6-3.1,4.3-5.7,3.7C331.2,219.5,330.4,219,329.8,218.4z
	"/>
<ellipse transform="matrix(0.7071 -0.7071 0.7071 0.7071 -178.425 213.8364)" style="fill:#324A5E;" cx="168.911" cy="322.296" rx="27.1" ry="4.5"/>
<path style="fill:#FFD05B;" d="M362.6,143.1l-14.4-14.4l22.2-22.2c0.4-0.4,1-0.4,1.4,0l13,13c0.4,0.4,0.4,1,0,1.4L362.6,143.1z"/>
<path style="fill:#FF7058;" d="M160.6,335.8c1.1,1.1,2.9,1.5,4.3,0.8c32.3-15.7,115.4-86.7,164.2-135.6
	c58.4-58.4,45.4-62.8,34.7-73.6c-10.7-10.7-15.2-23.7-73.6,34.7c-48.7,48.8-119.7,132-135.5,164.3c-0.7,1.4-0.4,3.2,0.8,4.3
	L160.6,335.8z"/>
<g>
	<path style="fill:#FFD05B;" d="M178.8,289.8c-11.1,14.9-19.7,27.7-24.1,36.6c-0.7,1.4-0.4,3.2,0.8,4.3l5.1,5.1
		c1.1,1.1,2.9,1.5,4.3,0.8c8.9-4.3,21.7-12.9,36.6-24.1L178.8,289.8z"/>
	<path style="fill:#FFD05B;" d="M306.3,223.1c2.9-2.7,5.7-5.4,8.4-8l-38.5-38.6c-2.6,2.7-5.3,5.6-8,8.4L306.3,223.1z"/>
</g>
<g>
</g>
<g>
</g>
<g>
</g>
<g>
</g>
<g>
</g>
<g>
</g>
<g>
</g>
<g>
</g>
<g>
</g>
<g>
</g>
<g>
</g>
<g>
</g>
<g>
</g>
<g>
</g>
<g>
</g>
</svg>
